<svg width="25" height="24" viewBox="0 0 25 24" fill="none" xmlns="http://www.w3.org/2000/svg">
<g id="heroicons-solid/sparkles">
<g id="Vector">
<path fill-rule="evenodd" clip-rule="evenodd" d="M9.44922 4.5C9.78408 4.5 10.0784 4.72198 10.1704 5.04396L10.9836 7.89015C11.3395 9.13593 12.3133 10.1097 13.5591 10.4657L16.4053 11.2789C16.7272 11.3709 16.9492 11.6651 16.9492 12C16.9492 12.3349 16.7272 12.6291 16.4053 12.7211L13.5591 13.5343C12.3133 13.8903 11.3395 14.8641 10.9836 16.1099L10.1704 18.956C10.0784 19.278 9.78408 19.5 9.44922 19.5C9.11436 19.5 8.82007 19.278 8.72808 18.956L7.91488 16.1099C7.55894 14.8641 6.58515 13.8903 5.33937 13.5343L2.49318 12.7211C2.1712 12.6291 1.94922 12.3349 1.94922 12C1.94922 11.6651 2.1712 11.3709 2.49318 11.2789L5.33937 10.4657C6.58515 10.1097 7.55894 9.13593 7.91488 7.89015L8.72808 5.04396C8.82007 4.72198 9.11436 4.5 9.44922 4.5Z" fill="#8571FF"/>
<path fill-rule="evenodd" clip-rule="evenodd" d="M18.4492 1.5C18.7934 1.5 19.0934 1.73422 19.1768 2.0681L19.4357 3.10356C19.6708 4.04406 20.4052 4.7784 21.3457 5.01353L22.3811 5.27239C22.715 5.35586 22.9492 5.65585 22.9492 6C22.9492 6.34415 22.715 6.64414 22.3811 6.72761L21.3457 6.98647C20.4052 7.2216 19.6708 7.95594 19.4357 8.89644L19.1768 9.9319C19.0934 10.2658 18.7934 10.5 18.4492 10.5C18.1051 10.5 17.8051 10.2658 17.7216 9.9319L17.4627 8.89644C17.2276 7.95594 16.4933 7.2216 15.5528 6.98647L14.5173 6.72761C14.1834 6.64414 13.9492 6.34415 13.9492 6C13.9492 5.65585 14.1834 5.35586 14.5173 5.27239L15.5528 5.01353C16.4933 4.7784 17.2276 4.04406 17.4627 3.10356L17.7216 2.0681C17.8051 1.73422 18.1051 1.5 18.4492 1.5Z" fill="#8571FF"/>
<path fill-rule="evenodd" clip-rule="evenodd" d="M16.9492 15C17.272 15 17.5586 15.2066 17.6607 15.5128L18.055 16.6956C18.2043 17.1435 18.5558 17.4949 19.0037 17.6442L20.1864 18.0385C20.4926 18.1406 20.6992 18.4272 20.6992 18.75C20.6992 19.0728 20.4926 19.3594 20.1864 19.4615L19.0037 19.8558C18.5558 20.0051 18.2043 20.3565 18.055 20.8044L17.6607 21.9872C17.5586 22.2934 17.272 22.5 16.9492 22.5C16.6264 22.5 16.3398 22.2934 16.2377 21.9872L15.8435 20.8044C15.6942 20.3565 15.3427 20.0051 14.8948 19.8558L13.712 19.4615C13.4058 19.3594 13.1992 19.0728 13.1992 18.75C13.1992 18.4272 13.4058 18.1406 13.712 18.0385L14.8948 17.6442C15.3427 17.4949 15.6942 17.1435 15.8435 16.6956L16.2377 15.5128C16.3398 15.2066 16.6264 15 16.9492 15Z" fill="#8571FF"/>
</g>
</g>
</svg>
